# xmcd
#
# Track frame offsets: 
#        150
#        11516
#        23931
#        35463
#        46819
#        59138
#        70080
#        81080
#        93667
#        104608
#        116629
#        128737
#        141447
#        154175
#        166639
#        179458
#
# Disc length: 2565 seconds
#
# Revision: 2
# Processed by: cddbd v1.5.2PL0 Copyright (c) Steve Scherf et al.
# Submitted via: ExactAudioCopy v1.0b3
#
DISCID=da0a0310
DTITLE=Clarence Gatemouth Brown - Guitar In My Hand
DYEAR=2000
DGENRE=Blues
TTITLE0=Gatemouth Boogie
TTITLE1=Guitar In My Hand
TTITLE2=After Sunset
TTITLE3=Without My Baby
TTITLE4=Didn't Reach My Goal
TTITLE5=Atomic Energy
TTITLE6=Mercy On Me
TTITLE7=My Time's Expensive
TTITLE8=Mary Is Fine
TTITLE9=I Live My Live
TTITLE10=2 O'clock In The Morning
TTITLE11=Boggie Rambler
TTITLE12=I've Been Mistreated
TTITLE13=It Can Never Be That Way
TTITLE14=Jusice Blues
TTITLE15=Just Got Lucky
EXTD=
EXTT0=
EXTT1=
EXTT2=
EXTT3=
EXTT4=
EXTT5=
EXTT6=
EXTT7=
EXTT8=
EXTT9=
EXTT10=
EXTT11=
EXTT12=
EXTT13=
EXTT14=
EXTT15=
PLAYORDER=
